<svg width="40" height="40" viewBox="0 0 40 40" fill="none" xmlns="http://www.w3.org/2000/svg">
<path d="M40 11.8777V0.960705C33.0131 0.960705 26.2009 3.31878 21.31 7.42358L20 8.47162L18.6899 7.42358C13.7118 3.31878 6.9869 0.960705 0 0.960705V11.8777C0 14.8472 1.04805 17.6419 2.79477 20C1.04805 22.3581 0 25.1528 0 28.1223V39.0393C6.9869 39.0393 13.7991 36.6812 18.6899 32.5764L20 31.5284C16.5939 29.5196 14.4978 25.9389 14.4978 21.9214V18.0786C14.4978 14.1485 16.5939 10.4804 20 8.47162C23.4061 10.4804 25.5022 14.1485 25.5022 18.0786V21.9214C25.5022 25.8515 23.4061 29.5196 20 31.5284L21.31 32.5764C26.2882 36.6812 33.0131 39.0393 40 39.0393V28.1223C40 25.1528 38.952 22.3581 37.2052 20C38.952 17.6419 40 14.8472 40 11.8777Z" fill="#FF9000"/>
</svg>
